<svg width="40" height="40" viewBox="0 0 40 40" fill="none" xmlns="http://www.w3.org/2000/svg">
<circle cx="20" cy="19.998" r="19.5" stroke="#FF4046"/>
<path fill-rule="evenodd" clip-rule="evenodd" d="M27.32 15.558C26.886 14.786 26.415 14.644 25.456 14.59C24.498 14.525 22.089 14.498 20.002 14.498C17.911 14.498 15.501 14.525 14.544 14.589C13.587 14.644 13.115 14.785 12.677 15.558C12.23 16.329 12 17.657 12 19.995V20.003C12 22.331 12.23 23.669 12.677 24.432C13.115 25.204 13.586 25.344 14.543 25.409C15.501 25.465 17.911 25.498 20.002 25.498C22.089 25.498 24.498 25.465 25.457 25.41C26.416 25.345 26.887 25.205 27.321 24.433C27.772 23.67 28 22.332 28 20.004V19.996C28 17.657 27.772 16.329 27.32 15.558Z" fill="#F44336"/>
<path fill-rule="evenodd" clip-rule="evenodd" d="M18 22.998V16.998L23 19.998L18 22.998Z" fill="#FAFAFA"/>
</svg>
