<svg width="40" height="40" viewBox="0 0 40 40" fill="none" xmlns="http://www.w3.org/2000/svg">
<circle cx="20" cy="19.998" r="19.5" stroke="#FF4046"/>
<path d="M24.272 14.766C24.0821 14.766 23.8965 14.8224 23.7387 14.9278C23.5808 15.0333 23.4577 15.1833 23.3851 15.3587C23.3124 15.5341 23.2934 15.7271 23.3304 15.9133C23.3675 16.0996 23.4589 16.2706 23.5932 16.4049C23.7274 16.5391 23.8985 16.6306 24.0847 16.6676C24.2709 16.7046 24.464 16.6856 24.6394 16.613C24.8148 16.5403 24.9647 16.4173 25.0702 16.2594C25.1757 16.1015 25.232 15.9159 25.232 15.726C25.232 15.4714 25.1309 15.2273 24.9508 15.0472C24.7708 14.8672 24.5266 14.766 24.272 14.766ZM27.952 16.702C27.9364 16.0383 27.8121 15.3816 27.584 14.758C27.3806 14.2246 27.064 13.7415 26.656 13.342C26.2599 12.932 25.7756 12.6174 25.24 12.422C24.6181 12.187 23.9607 12.0598 23.296 12.046C22.448 11.998 22.176 11.998 20 11.998C17.824 11.998 17.552 11.998 16.704 12.046C16.0393 12.0598 15.3819 12.187 14.76 12.422C14.2253 12.6194 13.7415 12.9337 13.344 13.342C12.9339 13.7382 12.6193 14.2224 12.424 14.758C12.1889 15.3799 12.0618 16.0374 12.048 16.702C12 17.55 12 17.822 12 19.998C12 22.174 12 22.446 12.048 23.294C12.0618 23.9587 12.1889 24.6162 12.424 25.238C12.6193 25.7737 12.9339 26.2579 13.344 26.654C13.7415 27.0624 14.2253 27.3767 14.76 27.574C15.3819 27.8091 16.0393 27.9363 16.704 27.95C17.552 27.998 17.824 27.998 20 27.998C22.176 27.998 22.448 27.998 23.296 27.95C23.9607 27.9363 24.6181 27.8091 25.24 27.574C25.7756 27.3787 26.2599 27.0641 26.656 26.654C27.0658 26.2561 27.3827 25.7726 27.584 25.238C27.8121 24.6145 27.9364 23.9578 27.952 23.294C27.952 22.446 28 22.174 28 19.998C28 17.822 28 17.55 27.952 16.702ZM26.512 23.198C26.5062 23.7059 26.4142 24.209 26.24 24.686C26.1123 25.0342 25.9071 25.3488 25.64 25.606C25.3805 25.8705 25.0666 26.0752 24.72 26.206C24.243 26.3802 23.7398 26.4722 23.232 26.478C22.432 26.518 22.136 26.526 20.032 26.526C17.928 26.526 17.632 26.526 16.832 26.478C16.3047 26.4879 15.7797 26.4067 15.28 26.238C14.9486 26.1005 14.6491 25.8963 14.4 25.638C14.1345 25.381 13.9319 25.0662 13.808 24.718C13.6127 24.2342 13.5044 23.7196 13.488 23.198C13.488 22.398 13.44 22.102 13.44 19.998C13.44 17.894 13.44 17.598 13.488 16.798C13.4916 16.2789 13.5864 15.7644 13.768 15.278C13.9088 14.9404 14.125 14.6394 14.4 14.398C14.6431 14.123 14.9434 13.9045 15.28 13.758C15.7676 13.5821 16.2816 13.4901 16.8 13.486C17.6 13.486 17.896 13.438 20 13.438C22.104 13.438 22.4 13.438 23.2 13.486C23.7078 13.4919 24.211 13.5838 24.688 13.758C25.0515 13.893 25.3778 14.1123 25.64 14.398C25.9022 14.6438 26.107 14.9442 26.24 15.278C26.4178 15.7652 26.5098 16.2795 26.512 16.798C26.552 17.598 26.56 17.894 26.56 19.998C26.56 22.102 26.552 22.398 26.512 23.198ZM20 15.894C19.1886 15.8956 18.396 16.1377 17.7221 16.5896C17.0483 17.0415 16.5235 17.683 16.2141 18.433C15.9047 19.1831 15.8246 20.008 15.9838 20.8036C16.1431 21.5992 16.5346 22.3297 17.1089 22.9028C17.6831 23.476 18.4144 23.8661 19.2103 24.0238C20.0062 24.1815 20.8309 24.0997 21.5804 23.7889C22.3298 23.478 22.9703 22.952 23.4209 22.2773C23.8715 21.6025 24.112 20.8094 24.112 19.998C24.1131 19.4581 24.0074 18.9233 23.801 18.4244C23.5946 17.9255 23.2916 17.4723 22.9095 17.0909C22.5273 16.7095 22.0736 16.4074 21.5742 16.202C21.0749 15.9966 20.5399 15.8919 20 15.894ZM20 22.662C19.4731 22.662 18.9581 22.5058 18.52 22.2131C18.0819 21.9204 17.7404 21.5043 17.5388 21.0175C17.3372 20.5307 17.2844 19.9951 17.3872 19.4783C17.49 18.9616 17.7437 18.4869 18.1163 18.1143C18.4888 17.7417 18.9635 17.488 19.4803 17.3852C19.997 17.2824 20.5327 17.3352 21.0195 17.5368C21.5063 17.7385 21.9223 18.0799 22.215 18.518C22.5078 18.9561 22.664 19.4712 22.664 19.998C22.664 20.3479 22.5951 20.6943 22.4612 21.0175C22.3273 21.3407 22.1311 21.6344 21.8837 21.8818C21.6364 22.1292 21.3427 22.3254 21.0195 22.4593C20.6963 22.5931 20.3498 22.662 20 22.662Z" fill="#FF4046"/>
</svg>
