<svg width="40" height="40" viewBox="0 0 40 40" fill="none" xmlns="http://www.w3.org/2000/svg">
<circle cx="20" cy="19.998" r="19.5" stroke="#FF4046"/>
<path d="M27.8497 27.4976V21.6949C27.8497 18.5856 26.1901 17.1389 23.9773 17.1389C22.1917 17.1389 21.3914 18.1212 20.9456 18.8107V17.3767H17.5813C17.6259 18.3267 17.5813 27.4976 17.5813 27.4976H20.9456V21.8455C20.9456 21.5439 20.9671 21.2413 21.0564 21.0255C21.2992 20.4208 21.8528 19.795 22.7817 19.795C23.9994 19.795 24.4859 20.7229 24.4859 22.0833V27.498L27.8497 27.4976ZM14.037 15.9952C15.2096 15.9952 15.9408 15.2174 15.9408 14.2459C15.9192 13.2533 15.2101 12.498 14.0596 12.498C12.909 12.498 12.1562 13.2528 12.1562 14.2459C12.1562 15.2174 12.8865 15.9952 14.0159 15.9952H14.037ZM15.7192 27.4976V17.3767H12.3554V27.4976H15.7192Z" fill="#FF4046"/>
</svg>
