<svg width="40" height="40" viewBox="0 0 40 40" fill="none" xmlns="http://www.w3.org/2000/svg">
<circle cx="20" cy="19.998" r="19.5" stroke="#FF4046"/>
<path d="M28.0909 19.4089L21.424 12.742C21.3075 12.6255 21.159 12.5462 20.9974 12.5141C20.8358 12.4819 20.6682 12.4984 20.516 12.5615C20.3637 12.6245 20.2336 12.7313 20.142 12.8683C20.0504 13.0053 20.0015 13.1664 20.0015 13.3312V16.2855C17.725 16.4961 15.6091 17.5487 14.0678 19.2372C12.5265 20.9257 11.6707 23.1286 11.668 25.4148V26.6649C11.6681 26.8379 11.7221 27.0065 11.8224 27.1475C11.9227 27.2884 12.0644 27.3946 12.2278 27.4514C12.3912 27.5082 12.5682 27.5127 12.7343 27.4644C12.9004 27.416 13.0473 27.3172 13.1547 27.1816C13.9711 26.2107 14.9728 25.4122 16.1014 24.8329C17.2299 24.2535 18.4625 23.9049 19.7273 23.8073C19.769 23.8023 19.8732 23.794 20.0015 23.7856V26.6649C20.0015 26.8297 20.0504 26.9908 20.142 27.1278C20.2336 27.2648 20.3637 27.3716 20.516 27.4346C20.6682 27.4977 20.8358 27.5142 20.9974 27.482C21.159 27.4499 21.3075 27.3706 21.424 27.2541L28.0909 20.5872C28.2471 20.431 28.3349 20.219 28.3349 19.998C28.3349 19.7771 28.2471 19.5651 28.0909 19.4089ZM21.6682 24.6532V22.9148C21.6682 22.6938 21.5804 22.4818 21.4241 22.3255C21.2678 22.1692 21.0559 22.0814 20.8349 22.0814C20.6223 22.0814 19.7548 22.1231 19.5332 22.1523C17.2872 22.3592 15.1492 23.2125 13.378 24.609C13.5791 22.771 14.451 21.0717 15.8269 19.8365C17.2027 18.6013 18.9859 17.917 20.8349 17.9147C21.0559 17.9147 21.2678 17.8269 21.4241 17.6706C21.5804 17.5143 21.6682 17.3023 21.6682 17.0813V15.3429L26.3233 19.998L21.6682 24.6532Z" fill="#FF4046"/>
</svg>
