<svg width="102" height="91" viewBox="0 0 102 91" fill="none" xmlns="http://www.w3.org/2000/svg">
<path d="M4.60175 63.826L40.8592 63.826" stroke="#FB4141" stroke-width="3"/>
<path d="M1.59149 63.8261L3.2336 62.184L4.87571 63.8261L3.2336 65.4682L1.59149 63.8261Z" fill="#FB4141" stroke="#FB4141" stroke-width="3" stroke-linecap="round" stroke-linejoin="round"/>
<path d="M61.1272 63.826L97.3847 63.826" stroke="#FB4141" stroke-width="3"/>
<path d="M100.395 63.8261L98.7533 62.184L97.1111 63.8261L98.7533 65.4682L100.395 63.8261Z" fill="#FB4141" stroke="#FB4141" stroke-width="3" stroke-linecap="round" stroke-linejoin="round"/>
<path d="M9.64905 73.113C9.29364 72.7519 9.04467 72.3546 8.90402 71.9194C8.76718 71.4823 8.76718 71.0299 8.90402 70.5586C9.04467 70.0872 9.34116 69.6273 9.7935 69.175C10.204 68.7644 10.6564 68.4946 11.1543 68.3615C11.6504 68.2247 12.1464 68.2323 12.6444 68.3843C13.1404 68.5364 13.5947 68.8234 14.0052 69.2434C14.2124 69.4467 14.3853 69.6805 14.5222 69.9428C14.6628 70.2013 14.735 70.4636 14.735 70.7258C14.735 70.9843 14.6362 71.2086 14.4385 71.4025C14.2599 71.5849 14.0527 71.6856 13.8151 71.7065C13.5757 71.7313 13.3704 71.6571 13.1994 71.4861C13.1119 71.3987 13.0492 71.296 13.0093 71.1744C12.9732 71.0527 12.9865 70.9558 13.0473 70.8855C13.0511 70.8798 13.1005 70.8855 13.1917 70.9007C13.2868 70.9159 13.3932 70.9102 13.511 70.8855C13.6327 70.8646 13.741 70.8057 13.8379 70.7106C14.009 70.5396 14.0812 70.3343 14.0508 70.0948C14.0242 69.8516 13.9026 69.6235 13.6859 69.4106C13.4369 69.1579 13.1404 69.0001 12.7964 68.9393C12.4505 68.8747 12.0818 68.9165 11.6865 69.0685C11.295 69.2168 10.911 69.4791 10.5309 69.8592C10.166 70.2241 9.90753 70.5966 9.75549 70.9767C9.60724 71.3568 9.56733 71.7237 9.63385 72.0791C9.70417 72.4326 9.88093 72.75 10.166 73.0294C10.2915 73.1548 10.4112 73.2593 10.5233 73.3411C10.6393 73.4266 10.7704 73.5102 10.9186 73.5919L11.5496 72.9609C11.6903 72.8184 11.7853 72.7139 11.8309 72.6492C11.8803 72.5827 11.8917 72.5067 11.8613 72.4212C11.8347 72.3337 11.7587 72.2254 11.6333 72.0943C11.5877 72.0487 11.561 72.0068 11.5572 71.9726C11.5515 71.9422 11.5743 71.8966 11.6257 71.8358C11.6599 71.7997 11.7036 71.7788 11.7549 71.775C11.8043 71.7693 11.8499 71.7902 11.8917 71.8358C12.135 72.1095 12.3498 72.3394 12.5379 72.5276C12.7204 72.7101 12.9485 72.9229 13.2222 73.1662C13.2621 73.2061 13.2773 73.2498 13.2678 73.2954C13.2621 73.3411 13.2412 73.381 13.207 73.4171C13.1461 73.4722 13.0948 73.495 13.0549 73.4855C13.0188 73.4798 12.9808 73.4551 12.9409 73.4095C12.8192 73.2878 12.7147 73.2156 12.6292 73.1966C12.5417 73.1814 12.4638 73.1966 12.3935 73.2422C12.3213 73.2878 12.2205 73.3734 12.0894 73.5007L11.3596 74.2305C11.0099 74.0975 10.7134 73.953 10.4701 73.7972C10.2268 73.6394 9.95315 73.4114 9.64905 73.113Z" fill="#FB4141"/>
<path d="M13.7969 76.792C13.4928 76.543 13.2818 76.2484 13.1659 75.9101C13.0481 75.5699 13.0234 75.2259 13.0899 74.8762C13.1602 74.5265 13.3046 74.2205 13.5232 73.9563C13.8007 73.618 14.12 73.39 14.4811 73.2721C14.8403 73.1562 15.1957 73.1315 15.5454 73.1961C15.8951 73.2626 16.1916 73.3976 16.4349 73.599C16.739 73.8537 16.9481 74.1521 17.0659 74.4961C17.1818 74.8363 17.2046 75.1784 17.1343 75.5224C17.0678 75.8664 16.9234 76.1705 16.701 76.4347C16.4273 76.7692 16.108 76.9935 15.7431 77.1113C15.382 77.2272 15.0285 77.252 14.6788 77.1873C14.3291 77.1208 14.0345 76.9897 13.7969 76.792ZM14.0022 76.5411C14.3063 76.7939 14.6351 76.8471 14.9905 76.7008C15.344 76.5582 15.6899 76.2827 16.0244 75.8721C16.3437 75.4863 16.5299 75.1157 16.587 74.7546C16.6421 74.3954 16.5223 74.0932 16.2296 73.8499C15.9198 73.5971 15.591 73.542 15.2413 73.6827C14.8954 73.8195 14.5533 74.0932 14.215 74.5037C13.8995 74.8895 13.7095 75.2601 13.6448 75.6213C13.584 75.9862 13.7019 76.2922 14.0022 76.5411Z" fill="#FB4141"/>
<path d="M17.7833 79.8155C17.4583 79.5912 17.2226 79.3156 17.0762 78.9868C16.9337 78.6561 16.8805 78.3178 16.9166 77.9681C16.9565 77.6146 17.0762 77.2953 17.2739 77.0102C17.521 76.651 17.8175 76.3982 18.1634 76.25C18.5131 76.098 18.8647 76.0409 19.2201 76.0751C19.5736 76.1113 19.8815 76.2196 20.14 76.402C20.4631 76.6263 20.6969 76.9038 20.8394 77.2383C20.9857 77.569 21.039 77.9073 20.999 78.257C20.9629 78.6067 20.847 78.9222 20.6493 79.2073C20.4004 79.5665 20.102 79.8193 19.7523 79.9676C19.4064 80.1139 19.0566 80.169 18.7031 80.1348C18.3477 80.0987 18.0417 79.9923 17.7833 79.8155ZM17.9733 79.5418C18.2964 79.7642 18.629 79.7889 18.9692 79.6178C19.3075 79.4506 19.6268 79.1465 19.9271 78.7056C20.2103 78.3007 20.3643 77.9149 20.3909 77.55C20.4156 77.1851 20.2711 76.8943 19.9575 76.6757C19.6268 76.4477 19.2961 76.4211 18.9616 76.5921C18.6271 76.7594 18.3078 77.0616 18.0037 77.4968C17.7186 77.9073 17.5628 78.295 17.5324 78.6599C17.5058 79.0249 17.654 79.3175 17.9733 79.5418Z" fill="#FB4141"/>
<path d="M21.8467 82.3852C21.5616 82.2217 21.345 81.9937 21.1929 81.701C21.0409 81.4121 20.9686 81.0909 20.98 80.7355C20.9896 80.382 21.0941 80.0285 21.2917 79.6787C21.4685 79.3652 21.7099 79.1143 22.014 78.9261C22.3219 78.7399 22.6564 78.6372 23.0175 78.622C23.3824 78.6068 23.7264 78.6904 24.0514 78.8729C24.2129 78.9641 24.3574 79.0744 24.4847 79.1998C24.6159 79.3271 24.7242 79.4545 24.8116 79.5799L24.8344 79.5951L25.4882 78.4472C25.5643 78.316 25.6137 78.2191 25.6403 78.1583C25.665 78.0937 25.6631 78.0214 25.6327 77.9454C25.6061 77.8656 25.5282 77.7858 25.397 77.7097C25.3362 77.6755 25.2944 77.6413 25.2754 77.6109C25.2602 77.5767 25.2697 77.5254 25.3058 77.4589C25.321 77.4342 25.3457 77.4132 25.3818 77.398C25.416 77.379 25.454 77.379 25.4958 77.398C25.8398 77.5311 26.1496 77.6166 26.4233 77.6565C26.5089 77.6717 26.5754 77.6907 26.621 77.7097L26.6438 77.7249C26.7236 77.7706 26.7369 77.8428 26.6818 77.9378L24.0362 82.5904C23.8689 82.8831 23.9792 83.1416 24.3707 83.3659C24.4562 83.4153 24.4733 83.4818 24.4239 83.5635C24.3821 83.6339 24.3175 83.651 24.2263 83.6168L22.9871 83.0238C22.951 83.0029 22.9358 82.9782 22.9415 82.9478C22.9453 82.9211 22.9643 82.8812 22.9947 82.8261L23.1695 82.522L23.1543 82.5144C22.9415 82.5752 22.7153 82.5942 22.4777 82.5752C22.2439 82.5543 22.033 82.4916 21.8467 82.3852ZM22.3105 82.1571C22.4872 82.2578 22.6564 82.3092 22.8198 82.3092C22.9871 82.3092 23.1562 82.2826 23.3292 82.2331L24.4695 80.2413C24.5037 80.0703 24.4847 79.884 24.4087 79.6864C24.3327 79.4849 24.1882 79.3195 23.9754 79.1922C23.7777 79.082 23.5648 79.0402 23.3368 79.0706C23.1087 79.101 22.8806 79.2112 22.6526 79.3975C22.4283 79.5856 22.2268 79.8384 22.0444 80.1577C21.8258 80.5492 21.7327 80.9312 21.7631 81.3057C21.7935 81.6801 21.976 81.9633 22.3105 82.1571Z" fill="#FB4141"/>
<path d="M26.9009 84.9176C26.8553 84.9024 26.8268 84.872 26.8173 84.8264C26.8059 84.7846 26.8135 84.739 26.8401 84.6896C26.8743 84.6097 26.9104 84.5679 26.9465 84.5679C26.9807 84.5641 27.0377 84.5755 27.1138 84.6059C27.2658 84.6725 27.3893 84.6934 27.4863 84.6668C27.587 84.6363 27.663 84.5869 27.7143 84.5147C27.7695 84.4387 27.8246 84.338 27.8816 84.2106L29.212 81.0404C29.2671 80.8998 29.3032 80.7858 29.3184 80.6983C29.3336 80.6071 29.3127 80.5197 29.2576 80.4322C29.2063 80.341 29.1056 80.2631 28.9535 80.1966L28.9003 80.1738C28.8433 80.1548 28.811 80.132 28.8015 80.1053C28.7901 80.0749 28.7977 80.0217 28.8243 79.9457C28.8433 79.8963 28.8718 79.8602 28.9079 79.8393C28.9421 79.8146 28.9839 79.8089 29.0295 79.8241C29.3736 79.9875 29.6872 80.1282 29.9722 80.2498L32.291 81.2153C32.4278 81.2761 32.4696 81.3711 32.4202 81.4966L31.9717 82.6217C31.9508 82.673 31.9108 82.7035 31.85 82.713C31.7892 82.7244 31.7322 82.7187 31.6828 82.6977C31.6219 82.673 31.5706 82.6369 31.5307 82.5913C31.4889 82.5457 31.4775 82.4963 31.4927 82.4393C31.563 82.1713 31.601 81.9584 31.6067 81.8007C31.6105 81.6391 31.5782 81.5042 31.5079 81.3977C31.4414 81.2875 31.3179 81.1906 31.1354 81.1089L30.2611 80.7439L29.3945 82.8194L30.8313 83.42C30.8712 83.4466 30.894 83.4808 30.8997 83.5264C30.9035 83.5682 30.8959 83.6138 30.8769 83.6632C30.856 83.7089 30.8275 83.745 30.7933 83.7697C30.7629 83.7906 30.7268 83.7906 30.6869 83.7697L29.25 83.1691L28.6722 84.5375C28.6266 84.6744 28.5962 84.7846 28.581 84.872C28.5658 84.9632 28.5829 85.0507 28.6342 85.1381C28.6836 85.2293 28.7882 85.3073 28.9459 85.3738L28.9915 85.3966C29.0372 85.4156 29.0676 85.4384 29.0828 85.465C29.1018 85.4897 29.098 85.5429 29.0676 85.6247C29.041 85.6741 29.0105 85.7102 28.9763 85.7311C28.9402 85.7558 28.9003 85.7577 28.8547 85.7387C28.5202 85.5809 28.1895 85.4346 27.8664 85.2978C27.5775 85.1761 27.2544 85.0488 26.9009 84.9176Z" fill="#FB4141"/>
<path d="M33.0861 87.3724C32.7098 87.2508 32.4038 87.0532 32.1662 86.7795C31.9267 86.5115 31.7747 86.2017 31.7101 85.852C31.6492 85.5023 31.672 85.164 31.7785 84.8333C31.9153 84.4189 32.1282 84.092 32.4171 83.8526C32.7098 83.615 33.0329 83.4629 33.3826 83.3964C33.7323 83.3261 34.0592 83.3394 34.3633 83.4344C34.732 83.5561 35.0342 83.7537 35.268 84.0274C35.4998 84.3011 35.65 84.6128 35.7165 84.9625C35.7811 85.3084 35.7621 85.6448 35.6557 85.9736C35.5188 86.3898 35.3022 86.7148 35.0095 86.9543C34.7206 87.1976 34.4013 87.3515 34.0516 87.4181C33.7019 87.4827 33.3788 87.4675 33.0861 87.3724ZM33.1849 87.0608C33.5536 87.1824 33.8786 87.1102 34.158 86.8479C34.4355 86.5894 34.656 86.2074 34.8194 85.6999C34.9715 85.2286 35.0038 84.8162 34.9182 84.4608C34.8365 84.1072 34.6161 83.8678 34.2568 83.7461C33.8767 83.6245 33.5498 83.6929 33.2761 83.9514C33.0025 84.2061 32.7839 84.5862 32.6223 85.0917C32.4703 85.5688 32.4323 85.9869 32.5083 86.3461C32.5881 86.7053 32.8143 86.9429 33.1849 87.0608Z" fill="#FB4141"/>
<path d="M37.9028 88.7196C37.517 88.6283 37.1958 88.4554 36.9373 88.2026C36.6826 87.9555 36.5078 87.6609 36.4127 87.3207C36.3158 86.9767 36.3082 86.6346 36.3899 86.2944C36.485 85.8744 36.6674 85.5323 36.9373 85.2681C37.211 85.0001 37.517 84.8176 37.8572 84.7207C38.2012 84.62 38.5281 84.6067 38.8379 84.6827C39.218 84.7701 39.5335 84.9393 39.7882 85.1921C40.0467 85.4467 40.2215 85.7451 40.3128 86.0891C40.4078 86.4293 40.4192 86.7657 40.3432 87.1003C40.2462 87.526 40.0619 87.8681 39.7882 88.1266C39.5145 88.3889 39.2047 88.5694 38.8607 88.6663C38.5205 88.7671 38.2012 88.7842 37.9028 88.7196ZM37.9788 88.4003C38.3589 88.4858 38.6725 88.385 38.9215 88.0962C39.1743 87.813 39.3625 87.4119 39.4841 86.895C39.5943 86.4084 39.5943 85.9941 39.4841 85.6482C39.372 85.3042 39.1306 85.0894 38.7619 85.002C38.3704 84.9108 38.0511 85.0058 37.804 85.2833C37.555 85.5627 37.3706 85.9637 37.249 86.4845C37.1369 86.9672 37.135 87.3853 37.2414 87.7389C37.3516 88.0886 37.5987 88.309 37.9788 88.4003Z" fill="#FB4141"/>
<path d="M42.6187 89.6093C42.2994 89.5637 42.0143 89.4344 41.7672 89.2216C41.5182 89.0087 41.3339 88.735 41.2122 88.4005C41.0906 88.066 41.0564 87.7011 41.1134 87.3058C41.1628 86.9466 41.2958 86.6216 41.5087 86.3327C41.7216 86.04 41.9915 85.8195 42.3222 85.6713C42.6567 85.5249 43.0083 85.4774 43.3789 85.5268C43.5613 85.5534 43.7362 85.601 43.9035 85.6713C44.0745 85.7435 44.2247 85.8233 44.352 85.9146H44.3748L44.5573 84.607C44.5763 84.4549 44.5877 84.3466 44.5877 84.2801C44.5915 84.2097 44.5668 84.1432 44.5116 84.0824C44.4546 84.0178 44.352 83.9741 44.1999 83.9532C44.1277 83.9436 44.0783 83.9265 44.0479 83.8999C44.0175 83.8752 44.0061 83.8277 44.0175 83.7555C44.0213 83.7251 44.0365 83.6985 44.0631 83.6719C44.0935 83.6415 44.1315 83.6263 44.1771 83.6263C44.5459 83.6263 44.8652 83.5939 45.135 83.5274C45.2206 83.5084 45.289 83.5008 45.3403 83.5046H45.3707C45.4619 83.5198 45.4999 83.5844 45.4847 83.6947L44.7397 88.9935C44.6884 89.328 44.8861 89.5257 45.3327 89.5865C45.4277 89.6017 45.4714 89.6568 45.4619 89.7537C45.4467 89.8336 45.3897 89.8754 45.2947 89.8754L43.9187 89.7842C43.8768 89.7785 43.854 89.7613 43.8502 89.7309C43.8502 89.7005 43.8521 89.6549 43.8578 89.5941L43.9111 89.252H43.8882C43.7096 89.3831 43.5081 89.482 43.2801 89.5485C43.0558 89.6188 42.8353 89.6397 42.6187 89.6093ZM42.976 89.214C43.1736 89.2444 43.3485 89.2311 43.5005 89.176C43.6526 89.1208 43.8008 89.0353 43.9491 88.9175L44.2684 86.6444C44.2418 86.4733 44.1562 86.308 44.0099 86.1502C43.8616 85.9944 43.6678 85.8975 43.4245 85.8613C43.1964 85.8309 42.9836 85.8727 42.7859 85.983C42.5882 86.0951 42.4153 86.2795 42.2689 86.5379C42.1264 86.7926 42.0295 87.1005 41.9801 87.4654C41.9192 87.9121 41.9725 88.3017 42.1397 88.6362C42.3108 88.9707 42.5901 89.1646 42.976 89.214Z" fill="#FB4141"/>
<path d="M45.8986 90.9376C45.8416 90.9566 45.7941 90.9471 45.7542 90.9072C45.7181 90.8711 45.7029 90.8274 45.7086 90.778C45.7124 90.7171 45.7466 90.6791 45.8074 90.6639C46.0659 90.5879 46.2578 90.491 46.3852 90.375C46.5163 90.2629 46.5904 90.1203 46.6056 89.9493C46.6094 89.8543 46.5847 89.7725 46.5296 89.706C46.4783 89.6414 46.4023 89.5673 46.3015 89.4856C46.2046 89.4095 46.1305 89.3411 46.0811 89.2803C46.0298 89.2157 46.007 89.1396 46.0127 89.0522C46.0222 88.9458 46.0735 88.8527 46.1647 88.7709C46.2597 88.6854 46.3662 88.6455 46.484 88.6493C46.6456 88.6645 46.7881 88.7291 46.9097 88.8394C47.0314 88.9515 47.1245 89.0902 47.191 89.2575C47.2556 89.4247 47.2822 89.5901 47.267 89.7516C47.2404 90.0804 47.096 90.3408 46.8337 90.5347C46.5752 90.7266 46.2635 90.8616 45.8986 90.9376Z" fill="#FB4141"/>
<path d="M53.0579 90.2628C52.5504 90.278 52.0886 90.1868 51.6743 89.9891C51.258 89.7914 50.9254 89.4835 50.6784 89.0616C50.4294 88.6359 50.2944 88.1075 50.2754 87.4727C50.2602 86.8911 50.3705 86.3742 50.6099 85.9218C50.8532 85.4657 51.1991 85.1084 51.6515 84.8499C52.1019 84.5914 52.6208 84.4527 53.2099 84.4318C53.4988 84.4223 53.7839 84.4584 54.069 84.5382C54.3579 84.6142 54.5955 84.7435 54.7836 84.9259C54.9756 85.1046 55.0763 85.3289 55.0877 85.6025C55.0972 85.8572 55.0288 86.0777 54.8825 86.264C54.7399 86.4521 54.5441 86.5509 54.2971 86.5604C54.1754 86.5661 54.0557 86.5414 53.9398 86.4844C53.8219 86.4293 53.7611 86.3552 53.7573 86.264C53.7573 86.2601 53.7953 86.2259 53.8713 86.1651C53.9474 86.1043 54.0158 86.0245 54.0766 85.9218C54.1412 85.8211 54.1716 85.7014 54.1678 85.5645C54.1564 85.3213 54.0557 85.1293 53.8637 84.9868C53.6699 84.8461 53.4228 84.7777 53.1187 84.7815C52.7633 84.7967 52.444 84.9088 52.1608 85.116C51.8757 85.3251 51.6553 85.6235 51.4994 86.0131C51.3417 86.3989 51.2713 86.8569 51.2865 87.3891C51.3017 87.9061 51.3968 88.3508 51.5754 88.7195C51.7522 89.0901 51.9936 89.3714 52.2977 89.5634C52.6017 89.7572 52.9515 89.8447 53.3468 89.8295C53.5292 89.8257 53.6889 89.8104 53.8257 89.7838C53.9664 89.7591 54.1165 89.7192 54.2743 89.6622L54.2515 88.7727C54.2458 88.5713 54.2325 88.4306 54.2134 88.3546C54.1982 88.2748 54.1488 88.2159 54.069 88.1797C53.9873 88.1398 53.8561 88.1227 53.6737 88.1265C53.6072 88.1265 53.5596 88.117 53.5292 88.0961C53.5026 88.0771 53.4855 88.0258 53.476 87.9441C53.476 87.8947 53.4912 87.8509 53.5216 87.8148C53.552 87.7749 53.5977 87.754 53.6585 87.754C54.0234 87.7597 54.3389 87.7597 54.6088 87.754C54.8672 87.7445 55.1789 87.7236 55.5439 87.6932C55.599 87.6932 55.6389 87.7122 55.6655 87.7464C55.6959 87.7825 55.7111 87.8262 55.7111 87.8756C55.7111 87.9574 55.6959 88.0106 55.6655 88.0353C55.6351 88.0562 55.5895 88.0657 55.5287 88.0657C55.3557 88.0714 55.2322 88.0999 55.1561 88.1493C55.0839 88.2006 55.0421 88.2691 55.0269 88.3546C55.0117 88.4363 55.006 88.5675 55.0117 88.7499L55.0421 89.7762C54.7076 89.9492 54.3978 90.0708 54.1146 90.1411C53.8352 90.2115 53.4836 90.2514 53.0579 90.2628Z" fill="#FB4141"/>
<path d="M56.6017 89.9033C56.5599 89.909 56.5257 89.8995 56.4953 89.8729C56.4687 89.8424 56.4535 89.8044 56.4497 89.7588C56.444 89.679 56.4535 89.6296 56.4801 89.6144C56.5048 89.5954 56.5561 89.5802 56.6321 89.5688C56.7785 89.5536 56.8792 89.5193 56.9362 89.4623C56.9971 89.4015 57.0275 89.3388 57.0275 89.2723C57.0275 89.2019 57.0161 89.0898 56.9971 88.9378L56.7614 86.9688C56.7462 86.8224 56.731 86.7141 56.7158 86.6419C56.7006 86.5715 56.6568 86.5164 56.5865 86.4746C56.5143 86.429 56.406 86.4138 56.2596 86.429C56.1874 86.4404 56.1361 86.4366 56.1 86.4214C56.0658 86.4062 56.0449 86.3606 56.0392 86.2845C56.0354 86.2503 56.043 86.2142 56.062 86.1781C56.0772 86.1382 56.1076 86.1135 56.1532 86.1021C56.5181 86.0109 56.8165 85.9044 57.0503 85.7828C57.1415 85.7429 57.2042 85.7182 57.2403 85.7068H57.2707C57.3563 85.6916 57.4038 85.7372 57.4152 85.8436L57.4836 86.3758H57.5064C57.6832 86.1477 57.8675 85.9652 58.0614 85.8284C58.259 85.6878 58.4415 85.606 58.6088 85.5851C58.795 85.5604 58.9528 85.6117 59.0801 85.7372C59.2112 85.8645 59.2892 86.0223 59.3158 86.2085C59.331 86.372 59.2949 86.5202 59.2093 86.6571C59.1276 86.7939 59.0003 86.8737 58.8292 86.8927C58.7475 86.9041 58.6772 86.8965 58.6164 86.8699C58.5555 86.8395 58.5194 86.8167 58.5099 86.8015C58.5137 86.7825 58.5365 86.7407 58.5783 86.6799C58.6183 86.6153 58.6335 86.5411 58.624 86.4594C58.6126 86.353 58.5783 86.2731 58.5175 86.2161C58.4605 86.161 58.3845 86.1382 58.2895 86.1477C58.1925 86.1591 58.0728 86.2218 57.9321 86.3378C57.7953 86.4499 57.6604 86.5848 57.5292 86.7407L57.7801 88.8389C57.7991 88.991 57.82 89.1031 57.8409 89.1734C57.8599 89.24 57.9036 89.2951 57.9702 89.3407C58.0405 89.3825 58.1488 89.392 58.2971 89.3711H58.3503C58.3959 89.3673 58.4301 89.3711 58.4567 89.3863C58.4814 89.3977 58.5042 89.4376 58.5251 89.5079C58.5289 89.5536 58.5213 89.5954 58.5023 89.6296C58.4814 89.6657 58.4453 89.6866 58.3959 89.6904C58.0614 89.717 57.7611 89.7436 57.4988 89.774C57.2346 89.8101 56.9362 89.8539 56.6017 89.9033Z" fill="#FB4141"/>
<path d="M62.4053 89.1388C61.9795 89.2206 61.5994 89.1997 61.2649 89.078C60.9304 88.9526 60.6567 88.7473 60.4438 88.4622C60.231 88.1734 60.0884 87.8426 60.0181 87.4663C59.9535 87.128 59.9687 86.7878 60.0637 86.4476C60.1588 86.1093 60.3336 85.8147 60.5883 85.5657C60.8411 85.3187 61.1547 85.159 61.531 85.0868C62.0365 84.9918 62.4509 85.0469 62.7702 85.254C63.0895 85.4574 63.3118 85.7748 63.4392 86.2043C63.4734 86.3925 63.4468 86.5312 63.3555 86.6225C63.2643 86.7099 63.1218 86.7707 62.9298 86.8049L60.862 87.2002C60.9627 87.7286 61.1528 88.1277 61.4322 88.4014C61.7096 88.6713 62.0803 88.7587 62.5421 88.6675C62.7892 88.6219 62.9868 88.5307 63.1351 88.3938C63.2871 88.2532 63.4126 88.0403 63.5152 87.7552C63.5342 87.7305 63.5608 87.7153 63.5912 87.7096C63.6311 87.7058 63.6691 87.7058 63.7053 87.7096C63.7604 87.7362 63.7965 87.7837 63.8117 87.8541C63.8155 87.8845 63.8193 87.913 63.8193 87.9377C63.6977 88.2532 63.5152 88.5155 63.2719 88.7283C63.0324 88.9374 62.7436 89.0742 62.4053 89.1388ZM62.1924 86.6149C62.4813 86.5598 62.6124 86.4096 62.5877 86.1663C62.5364 85.904 62.4224 85.695 62.2456 85.5429C62.0669 85.3871 61.8465 85.3339 61.5842 85.3833C61.2953 85.4403 61.0786 85.6019 60.938 85.8698C60.7955 86.134 60.7498 86.4704 60.8012 86.881L62.1924 86.6149Z" fill="#FB4141"/>
<path d="M65.9699 88.3197C65.6354 88.411 65.3389 88.3919 65.0804 88.2589C64.8219 88.1278 64.6547 87.9206 64.5787 87.6355C64.4836 87.2858 64.5254 86.9931 64.7079 86.7536C64.8941 86.5104 65.1412 86.3184 65.4453 86.1759C65.7532 86.0295 66.1618 85.8718 66.6693 85.7045L66.4944 85.0507C66.4184 84.777 66.2911 84.5908 66.1143 84.4881C65.9357 84.3817 65.6962 84.3722 65.3921 84.4577C65.2191 84.5033 65.0842 84.5984 64.9892 84.739C64.8922 84.8759 64.8675 85.0336 64.9132 85.2104C64.9379 85.3016 64.9778 85.37 65.0348 85.4156C65.0956 85.4612 65.1526 85.4993 65.2096 85.5297C65.2705 85.5563 65.3009 85.5715 65.3009 85.5753C65.3104 85.6114 65.2876 85.6646 65.2325 85.7349C65.1811 85.8071 65.1032 85.8547 64.9968 85.8794C64.8333 85.925 64.6851 85.9022 64.5482 85.811C64.4171 85.7159 64.3278 85.5829 64.2822 85.4156C64.2023 85.1229 64.2727 84.8721 64.495 84.663C64.7117 84.4501 65.0063 84.2943 65.3769 84.1917C65.833 84.0662 66.2284 84.051 66.5629 84.146C66.8974 84.2373 67.1292 84.5186 67.2623 84.9899L67.7944 86.9437C67.8344 87.0558 67.9028 87.1547 67.9997 87.2402C68.0947 87.3276 68.2202 87.3504 68.3722 87.3086C68.4178 87.2991 68.4501 87.301 68.4711 87.3162C68.4958 87.3276 68.5167 87.358 68.5319 87.4074C68.5471 87.4797 68.5091 87.5443 68.4178 87.6051C68.3266 87.6621 68.2297 87.702 68.1289 87.7267C67.9161 87.7876 67.7108 87.7781 67.5132 87.6963C67.3193 87.6165 67.1825 87.4759 67.1026 87.2782C67.0456 87.5329 66.9126 87.7495 66.6997 87.932C66.4906 88.1145 66.2474 88.2437 65.9699 88.3197ZM66.1067 87.8028C66.293 87.7476 66.4564 87.6507 66.5933 87.5139C66.7301 87.3732 66.8232 87.2079 66.8746 87.0197C66.924 86.8278 66.9221 86.6301 66.867 86.4267L66.7377 85.9478C66.1637 86.1569 65.776 86.3659 65.5746 86.5788C65.3712 86.7879 65.3161 87.0539 65.4073 87.377C65.508 87.7572 65.7418 87.8997 66.1067 87.8028Z" fill="#FB4141"/>
<path d="M70.7128 86.9031C70.4486 86.9943 70.1882 86.9772 69.9297 86.8498C69.6712 86.7187 69.4774 86.4697 69.3519 86.1048L68.5081 83.6949L68.0367 83.8849C68.0063 83.8963 67.9759 83.8887 67.9455 83.8621C67.9113 83.8374 67.8847 83.807 67.8695 83.7709C67.8543 83.7215 67.8524 83.6759 67.8619 83.6341C67.8676 83.5941 67.8885 83.5637 67.9227 83.5428C68.0957 83.4421 68.223 83.33 68.3028 83.2083C68.3788 83.0829 68.4245 82.9612 68.4397 82.8434C68.4511 82.7275 68.4549 82.5526 68.4549 82.3188C68.4549 82.239 68.5005 82.182 68.5917 82.1516C68.6335 82.1364 68.6753 82.1345 68.721 82.144C68.7666 82.1497 68.7951 82.1706 68.8046 82.2048L69.0707 83.1551L70.021 82.7598L70.0362 82.7522C70.1065 82.7275 70.1597 82.7674 70.1958 82.8738C70.2148 82.9346 70.2224 82.9955 70.2186 83.0563C70.2186 83.1133 70.2053 83.1456 70.1806 83.1551L69.2607 83.4592L70.1274 85.9376C70.192 86.12 70.2813 86.2607 70.3935 86.3557C70.5037 86.4469 70.6462 86.4621 70.8192 86.4013C70.9865 86.3462 71.1252 86.2683 71.2373 86.1656C71.302 86.1105 71.3457 86.0782 71.3666 86.0668C71.4008 86.0573 71.435 86.0649 71.4654 86.0896C71.4996 86.1105 71.5338 86.1409 71.5642 86.1808C71.5794 86.1922 71.5889 86.2074 71.5946 86.2265C71.5984 86.2417 71.5908 86.2702 71.5718 86.3101C71.454 86.4735 71.3305 86.5971 71.1993 86.6826C71.0663 86.7643 70.9047 86.8384 70.7128 86.9031Z" fill="#FB4141"/>
<path d="M77.5248 83.8807C77.4488 83.9225 77.3804 83.9244 77.3196 83.8883L73.5868 80.8397L73.564 80.8549L75.1453 83.9035C75.2099 84.0403 75.2707 84.1448 75.3278 84.2152C75.3829 84.2817 75.457 84.3254 75.5482 84.3444C75.6433 84.3596 75.7687 84.3292 75.9207 84.2532L75.9664 84.2304C76.0215 84.2 76.0652 84.1905 76.0956 84.2C76.1298 84.2057 76.1678 84.2418 76.2096 84.3064C76.2343 84.3577 76.2419 84.4052 76.2324 84.4508C76.2267 84.4965 76.202 84.5326 76.1564 84.5573L75.9588 84.6485C75.7193 84.7549 75.5482 84.8367 75.4418 84.8918C75.2631 84.9792 75.0104 85.116 74.6816 85.3023C74.6302 85.3289 74.5865 85.3308 74.5523 85.3099C74.5162 85.2852 74.4858 85.2472 74.4611 85.1959C74.4193 85.1199 74.4098 85.0666 74.4307 85.0362C74.4497 85.0058 74.4953 84.9735 74.5675 84.9374C74.7196 84.8614 74.8146 84.7815 74.8564 84.6941C74.8963 84.6029 74.9039 84.5174 74.8792 84.4356C74.8583 84.3501 74.8203 84.238 74.7652 84.1011L73.2143 81.0298C73.1288 80.8625 73.0471 80.7485 72.971 80.6877C72.895 80.6269 72.8152 80.6003 72.7278 80.6041C72.6422 80.6041 72.5263 80.6269 72.3781 80.6725C72.3533 80.6725 72.321 80.6801 72.2792 80.6953C72.2336 80.7105 72.1994 80.7086 72.1728 80.6877C72.1481 80.6687 72.1234 80.6326 72.0968 80.5812C72.0664 80.5204 72.0645 80.4729 72.0892 80.4368C72.1101 80.3969 72.1557 80.3589 72.226 80.3228C72.5301 80.1707 72.7924 80.0643 73.009 80.0035C73.2219 79.9389 73.4329 79.9274 73.64 79.9731C73.8491 80.0187 74.0563 80.1327 74.2634 80.3152L77.1219 82.6263L77.1447 82.6187L76.757 78.0801L77.1979 77.852C77.4811 77.7114 77.7833 77.5479 78.1026 77.3655C78.1482 77.3407 78.19 77.3407 78.2319 77.3655C78.2718 77.3864 78.3041 77.4225 78.3307 77.4719C78.3611 77.5479 78.3687 77.6011 78.3535 77.6315C78.3383 77.6619 78.2946 77.6962 78.2243 77.7304C78.076 77.8026 77.981 77.8862 77.9354 77.9812C77.8898 78.0725 77.8765 78.1637 77.8974 78.2549C77.9164 78.3424 77.9601 78.4507 78.0266 78.5818L79.5851 81.6456C79.6497 81.7729 79.7105 81.8717 79.7675 81.9421C79.8284 82.0143 79.9082 82.0561 80.0108 82.0713C80.1115 82.0865 80.2351 82.0599 80.3833 81.9877L80.4365 81.9573C80.4765 81.9383 80.5126 81.9307 80.543 81.9345C80.5772 81.9402 80.6152 81.9782 80.657 82.0485C80.6817 82.0998 80.6893 82.1473 80.6798 82.1929C80.6741 82.2348 80.6494 82.2671 80.6038 82.2918C80.2693 82.4438 79.9576 82.594 79.6687 82.7403C79.3684 82.8924 79.0548 83.0634 78.726 83.2497C78.6804 83.2706 78.6367 83.2706 78.5968 83.2497C78.5607 83.2307 78.5303 83.1946 78.5055 83.1432C78.4694 83.0634 78.4599 83.0102 78.4751 82.9836C78.4941 82.9532 78.5398 82.9209 78.612 82.8848C78.764 82.8087 78.8629 82.7251 78.9085 82.6339C78.9541 82.5427 78.9636 82.4552 78.9389 82.3678C78.918 82.2766 78.88 82.1663 78.8248 82.0333L77.2664 78.9696L77.236 78.9848L77.6389 83.721C77.6484 83.7818 77.6104 83.8351 77.5248 83.8807Z" fill="#FB4141"/>
<path d="M83.3502 80.5799C83.0195 80.7985 82.6755 80.9125 82.3163 80.922C81.9552 80.9334 81.6188 80.8536 81.3052 80.6863C80.9916 80.5191 80.7407 80.291 80.5526 80.0021C80.315 79.6429 80.1934 79.2723 80.1877 78.8922C80.1782 78.5121 80.2561 78.1662 80.4233 77.8507C80.5906 77.5371 80.8073 77.2919 81.0695 77.1132C81.3983 76.9004 81.7423 76.7901 82.1035 76.7787C82.4627 76.7692 82.7972 76.8471 83.107 77.0144C83.4206 77.1779 83.6733 77.4021 83.8672 77.691C84.1048 78.0559 84.2245 78.4284 84.2245 78.8086C84.2283 79.1887 84.1485 79.5365 83.9812 79.8501C83.8178 80.1656 83.6087 80.4088 83.3502 80.5799ZM83.1678 80.3062C83.4966 80.0934 83.6429 79.7969 83.6087 79.4167C83.5783 79.0366 83.4187 78.6242 83.1298 78.1776C82.8561 77.7632 82.5539 77.4762 82.2251 77.3185C81.8944 77.1569 81.5713 77.1798 81.252 77.3869C80.9175 77.6055 80.7654 77.902 80.7959 78.2764C80.8263 78.6527 80.9897 79.0632 81.2824 79.508C81.5561 79.9242 81.8564 80.215 82.1871 80.3822C82.5159 80.5457 82.8428 80.5191 83.1678 80.3062Z" fill="#FB4141"/>
<path d="M87.4113 77.6497C87.1015 77.8987 86.767 78.0431 86.4078 78.083C86.0524 78.1248 85.7122 78.0754 85.3891 77.9386C85.0603 77.7979 84.7885 77.5927 84.5757 77.3228C84.302 76.9788 84.148 76.6196 84.1119 76.2433C84.072 75.8631 84.1195 75.5115 84.2564 75.1865C84.3932 74.8577 84.589 74.5935 84.8417 74.3959C85.1458 74.1583 85.4765 74.0196 85.8376 73.9778C86.1969 73.9378 86.539 73.9854 86.864 74.1222C87.1871 74.259 87.4569 74.4624 87.6698 74.7304C87.9435 75.0763 88.0974 75.4374 88.1336 75.8175C88.1678 76.1938 88.1183 76.5454 87.9815 76.8742C87.8447 77.1992 87.6546 77.4577 87.4113 77.6497ZM87.2061 77.3912C87.5102 77.1536 87.628 76.8476 87.5634 76.4713C87.5026 76.0969 87.3068 75.6997 86.978 75.2778C86.6739 74.8881 86.3489 74.6297 86.0049 74.5023C85.6647 74.3712 85.3473 74.4225 85.047 74.6544C84.7334 74.9033 84.6061 75.2131 84.6669 75.5819C84.7277 75.9525 84.9235 76.3459 85.2523 76.7602C85.5602 77.1517 85.8852 77.414 86.2254 77.5509C86.5694 77.6877 86.8963 77.6345 87.2061 77.3912Z" fill="#FB4141"/>
<path d="M91.0569 74.5264C90.8231 74.7507 90.5437 74.8913 90.2206 74.9521C89.8956 75.013 89.5668 74.9882 89.2323 74.8761C88.894 74.7602 88.5842 74.5549 88.3049 74.2603C88.0616 74.0018 87.8943 73.6978 87.8031 73.348C87.7119 72.9983 87.7119 72.6486 87.8031 72.2989C87.8943 71.9454 88.0768 71.6375 88.3505 71.379C88.4835 71.2574 88.6299 71.1548 88.7914 71.0673C88.9492 70.9818 89.1031 70.9153 89.2552 70.8697L89.2704 70.8545L88.3657 69.889C88.2592 69.7787 88.1813 69.7027 88.13 69.6609C88.0806 69.6153 88.0122 69.5963 87.9247 69.6001C87.8392 69.6001 87.7404 69.6533 87.6282 69.7597C87.5788 69.8111 87.5351 69.8415 87.499 69.851C87.4648 69.8567 87.4192 69.8339 87.3622 69.7825C87.3432 69.7578 87.3299 69.7255 87.3242 69.6837C87.3147 69.6438 87.328 69.6058 87.3622 69.5697C87.5902 69.2865 87.7632 69.0185 87.8791 68.7638C87.9209 68.6878 87.9551 68.6308 87.9856 68.589L88.0084 68.5662C88.0749 68.5053 88.1452 68.5168 88.2212 68.5966L91.8932 72.4966C92.125 72.7399 92.4063 72.7075 92.737 72.3977C92.8073 72.3331 92.8758 72.335 92.9423 72.4054C92.9974 72.4662 92.9955 72.5346 92.9347 72.6106L91.9996 73.6217C91.973 73.6521 91.9464 73.6597 91.916 73.6445C91.8894 73.6293 91.8571 73.6027 91.8171 73.5609L91.5815 73.3024L91.5663 73.3176C91.5606 73.5362 91.5149 73.7548 91.4294 73.9714C91.342 74.19 91.2185 74.3744 91.0569 74.5264ZM90.9809 74.0094C91.1272 73.8726 91.2242 73.7263 91.2698 73.5685C91.3154 73.4127 91.3401 73.2416 91.3458 73.0592L89.7721 71.3866C89.6201 71.3011 89.4376 71.265 89.2247 71.2802C89.0119 71.2954 88.8142 71.3866 88.6318 71.5539C88.4702 71.7116 88.3695 71.9036 88.3277 72.1317C88.2878 72.3559 88.3258 72.603 88.4417 72.8767C88.5538 73.1504 88.7363 73.4222 88.9891 73.6901C89.2932 74.0151 89.6296 74.2185 90.0002 74.2983C90.3689 74.3744 90.6958 74.2793 90.9809 74.0094Z" fill="#FB4141"/>
<path d="M92.6211 70.2749C92.5869 70.311 92.5451 70.3395 92.4995 70.3585C92.4539 70.3737 92.4197 70.3699 92.3931 70.3433C92.2106 70.1761 91.8666 69.9081 91.3592 69.5375C91.1159 69.3607 90.8707 69.1763 90.6217 68.9825C90.3689 68.7905 90.1618 68.6214 89.9983 68.4731C89.5023 68.0132 89.3597 67.6673 89.5726 67.4392C89.7855 67.2111 90.1409 67.329 90.6369 67.7889C90.8004 67.9372 90.9866 68.1291 91.1995 68.3667C91.4086 68.6005 91.6081 68.8304 91.8001 69.0585C92.2068 69.5413 92.4995 69.8644 92.682 70.0316C92.7086 70.062 92.7162 70.1 92.7048 70.1456C92.6896 70.1875 92.663 70.2293 92.6211 70.2749ZM94.0048 71.5825C93.8983 71.6946 93.771 71.7535 93.6247 71.7573C93.4764 71.763 93.3453 71.7098 93.2293 71.5977C93.1134 71.4913 93.0545 71.3658 93.0545 71.2176C93.0507 71.0655 93.1001 70.9344 93.2065 70.8223C93.313 70.7063 93.4384 70.6455 93.5866 70.6398C93.733 70.636 93.8641 70.6854 93.982 70.7918C94.0979 70.904 94.1587 71.0332 94.1644 71.1796C94.1682 71.3278 94.115 71.4609 94.0048 71.5825Z" fill="#FB4141"/>
<mask id="mask0_486_2484" style="mask-type:luminance" maskUnits="userSpaceOnUse" x="1" y="0" width="101" height="52">
<path d="M1.12756 0.947021H101.041V51.7459H1.12756V0.947021Z" fill="white"/>
</mask>
<g mask="url(#mask0_486_2484)">
<mask id="mask1_486_2484" style="mask-type:luminance" maskUnits="userSpaceOnUse" x="1" y="-2" width="100" height="54">
<path d="M1.0553 25.1301C1.0553 39.8539 12.991 51.7915 27.7167 51.7915H74.2925C89.0183 51.7915 100.954 39.8539 100.954 25.1301C100.954 10.4043 89.0183 -1.53137 74.2925 -1.53137H27.7167C12.991 -1.53137 1.0553 10.4043 1.0553 25.1301Z" fill="white"/>
</mask>
<g mask="url(#mask1_486_2484)">
<path d="M1.14821 51.7477C1.1102 50.1151 1.15012 48.4844 1.26795 46.8518C1.39339 45.223 1.60055 43.5961 1.88564 41.9825C2.46532 38.7382 3.3624 35.5832 4.57687 32.5195C5.80275 29.45 7.31562 26.5326 9.11928 23.7635C10.0183 22.3799 10.9876 21.0456 12.0253 19.7608C13.0611 18.476 14.1577 17.2445 15.3171 16.0661C16.4746 14.8896 17.689 13.7664 18.9605 12.7002C20.2301 11.6434 21.551 10.6494 22.9232 9.72194C24.6414 8.56068 26.4222 7.50966 28.2696 6.56887C30.117 5.62808 32.0156 4.80512 33.9657 4.10001C35.9138 3.39489 37.8999 2.81331 39.9202 2.35527C41.9424 1.89533 43.9855 1.56272 46.0477 1.35746C48.1098 1.1522 50.1777 1.07427 52.2493 1.12559C54.3228 1.1769 56.3831 1.35556 58.4338 1.66155C60.4826 1.96945 62.5068 2.40088 64.5024 2.95775C66.4999 3.51653 68.4537 4.19504 70.3657 4.99518C73.4275 6.28378 76.3316 7.86127 79.0799 9.72384C80.4521 10.6513 81.773 11.6434 83.0445 12.704C84.3103 13.7645 85.5248 14.8839 86.6841 16.0642C87.8435 17.2464 88.9401 18.476 89.9741 19.7589C91.0118 21.0437 91.9811 22.378 92.8801 23.7616C94.6837 26.5288 96.1985 29.4462 97.4225 32.5157C98.6369 35.5775 99.534 38.7306 100.116 41.9749C100.401 43.5885 100.606 45.2116 100.733 46.8461C100.859 48.4787 100.899 50.1113 100.853 51.742C100.853 51.7724 100.838 51.7876 100.807 51.7876C100.777 51.7876 100.762 51.7724 100.762 51.742C100.76 48.4749 100.441 45.2382 99.8058 42.0319C99.5682 40.8346 99.285 39.6467 98.96 38.4702C98.6331 37.2938 98.2644 36.1306 97.852 34.9788C97.4415 33.829 96.9872 32.6962 96.4912 31.5806C95.997 30.463 95.4611 29.3664 94.8852 28.2907C94.3074 27.213 93.6935 26.1582 93.0397 25.1281C92.3859 24.0961 91.6941 23.0888 90.9662 22.1081C90.2382 21.1274 89.4742 20.1752 88.676 19.2515C87.8777 18.3259 87.0472 17.4326 86.1824 16.5698C85.3195 15.7069 84.4243 14.8763 83.4988 14.08C82.5732 13.2817 81.6191 12.5196 80.6384 11.7936C79.6558 11.0657 78.6485 10.3757 77.6164 9.72384C76.5844 9.07004 75.5296 8.45615 74.452 7.88217C73.3743 7.3063 72.2777 6.77223 71.1601 6.27808C70.0426 5.78393 68.9099 5.33159 67.7581 4.92296C66.6082 4.51243 65.4451 4.14372 64.2667 3.81872C63.0884 3.49562 61.9024 3.21433 60.7031 2.97676C57.5006 2.34766 54.2658 2.03217 51.0006 2.03217C47.7373 2.03217 44.5025 2.34766 41.2981 2.97676C38.0956 3.60775 34.9863 4.54854 31.97 5.79723C30.4648 6.42062 28.9937 7.11814 27.5569 7.88598C26.12 8.65381 24.725 9.49007 23.3699 10.3948C22.0148 11.2994 20.7091 12.2687 19.449 13.3026C18.1889 14.3347 16.982 15.4275 15.8303 16.5793C14.6766 17.731 13.5838 18.936 12.5498 20.1942C11.514 21.4524 10.5447 22.7581 9.63814 24.1113C8.73156 25.4664 7.8934 26.8614 7.12366 28.2964C6.35392 29.7332 5.65451 31.2024 5.02921 32.7057C3.77673 35.722 2.83213 38.8313 2.19544 42.0357C1.56064 45.242 1.24134 48.4787 1.23944 51.7477C1.23944 51.7781 1.22424 51.7933 1.19383 51.7933C1.16342 51.7933 1.14821 51.7781 1.14821 51.7496V51.7477Z" fill="#FB4141"/>
</g>
</g>
<path d="M75.412 40.6313L97.3961 40.6313" stroke="#FB4141" stroke-width="3"/>
<path d="M100.407 40.6313L98.7645 38.9892L97.1224 40.6313L98.7645 42.2734L100.407 40.6313Z" fill="#FB4141" stroke="#FB4141" stroke-width="3" stroke-linecap="round" stroke-linejoin="round"/>
<path d="M4.61136 41.1026L26.5974 40.6313" stroke="#FB4141" stroke-width="3"/>
<path d="M1.60287 41.1672L3.20887 39.489L4.88518 41.0969L3.27919 42.7732L1.60287 41.1672Z" fill="#FB4141" stroke="#FB4141" stroke-width="3" stroke-linecap="round" stroke-linejoin="round"/>
<mask id="mask2_486_2484" style="mask-type:luminance" maskUnits="userSpaceOnUse" x="38" y="14" width="32" height="28">
<path d="M38.1055 14.0838H69.7313V41.6195H38.1055V14.0838Z" fill="white"/>
</mask>
<g mask="url(#mask2_486_2484)">
<path fill-rule="evenodd" clip-rule="evenodd" d="M54.8575 38.6508C55.9617 38.7782 57.0546 39.0005 58.136 39.3027C58.1721 39.3141 58.1949 39.2913 58.1949 39.2552C58.1835 38.2916 58.1835 37.3261 58.2063 36.3378C58.2405 34.8154 57.7635 33.3729 56.3228 32.7229C55.4391 32.3143 54.4736 32.0938 53.4054 32.0482C51.5219 31.9665 49.6613 32.1413 47.8234 32.5937C46.2554 32.9206 44.8015 33.466 43.4768 34.2339C43.395 34.2795 43.3722 34.2681 43.4292 34.1863C45.6396 31.1302 49.9045 29.8397 53.5214 29.8264C55.8572 29.8264 58.2405 30.3624 60.067 31.7346C60.3103 31.9189 60.6011 32.1869 60.9489 32.5366C61.0078 32.5366 61.0534 32.5366 61.1009 32.5366C62.5891 32.3846 63.7864 31.7688 64.7044 30.7102C66.0538 29.1289 66.3085 26.8273 65.5996 24.9324C64.7044 22.5376 62.5187 21.3289 60.0081 21.5151C59.1357 21.5721 58.2766 21.7584 57.4385 22.0606L55.707 22.817C55.5778 22.876 55.5664 22.8398 55.6481 22.7353C55.823 22.5148 56.0434 22.2697 56.2753 22.015C56.8569 21.4448 57.5088 20.9792 58.2405 20.62C58.2519 20.6086 58.2633 20.5857 58.2519 20.5724C56.6839 16.1783 51.4516 16.4463 48.614 19.2135C48.0097 19.7951 47.487 20.3748 47.0347 20.9678C46.244 21.9808 45.4287 23.0261 44.5924 24.1189C43.4178 25.6299 42.1159 27.061 40.4073 27.7224C39.7668 27.9201 39.1282 27.9676 38.4782 27.8517C38.4193 27.8384 38.3718 27.8156 38.3376 27.7814C38.3262 27.77 38.3262 27.77 38.3262 27.7586C38.3262 27.7472 38.3376 27.7224 38.349 27.7224C39.4532 27.4089 40.5347 26.3977 41.2683 25.4322C41.8727 24.6416 42.4409 23.7939 42.9408 22.8988C43.6155 21.7128 44.3016 20.5382 44.9991 19.3865C46.4645 16.9347 48.4297 14.8308 51.3243 14.272C53.3009 13.8881 55.1825 14.0971 56.9861 14.8992C59.1946 15.8761 60.6714 17.4916 61.4259 19.7476C61.4373 19.7951 61.4734 19.8065 61.5076 19.8065C64.1114 19.7362 66.7514 20.7834 68.2395 22.9672C69.6345 25.0027 69.7961 27.6768 68.8553 29.9556C67.6104 32.9662 64.8793 34.7565 61.6597 35.0701C61.6236 35.0701 61.5894 35.0929 61.5894 35.129C61.2396 37.0125 61.2282 38.8713 61.5551 40.7206C61.5665 40.7909 61.6122 40.8593 61.6711 40.9068C61.9847 41.1159 62.2641 41.3478 62.5187 41.6043C62.6005 41.6861 62.5891 41.7203 62.4617 41.6861C58.1835 40.8023 53.5898 40.5685 49.1614 40.7548C46.3942 40.8593 43.6972 41.1748 41.082 41.6975C41.0003 41.7089 40.9889 41.6861 41.0459 41.6271C41.5002 41.1976 41.9886 40.8251 42.5455 40.5001C43.454 39.9641 44.5582 39.5346 45.8601 39.2096C48.8117 38.476 51.8127 38.2783 54.8575 38.6508Z" fill="#FB4141"/>
</g>
<path fill-rule="evenodd" clip-rule="evenodd" d="M36.8606 27.5248C35.8609 29.6877 35.9541 32.3276 37.6057 34.1047C38.8258 35.4313 40.6048 35.8494 42.3609 35.7677C42.4997 35.7677 42.4997 35.7905 42.3723 35.8494C41.441 36.315 40.4889 36.6286 39.512 36.8149C36.8036 37.3147 34.2568 36.2903 33.0823 33.7093C32.1985 31.7688 32.3391 29.3969 33.3731 27.4906C34.9201 24.653 37.885 23.3625 41.0818 23.1649C41.2795 23.1535 41.4658 23.1535 41.6634 23.1535C41.7546 23.1649 41.7546 23.1782 41.6748 23.2124C39.5576 24.0486 37.8147 25.4912 36.8606 27.5248Z" fill="#008C15"/>
<path d="M48.1853 59.3201C48.0485 59.3201 47.9478 59.2707 47.8812 59.1757C47.8109 59.0749 47.7748 58.9552 47.7748 58.8184C47.79 58.5903 47.8356 58.4535 47.9117 58.4078C47.9877 58.3622 48.0789 58.3394 48.1853 58.3394C48.2918 58.3394 48.3602 58.3394 48.3906 58.3394C48.8467 58.3394 49.1812 58.2235 49.3941 57.9897C49.607 57.7521 49.7761 57.4861 49.9035 57.1915C50.0346 56.8931 50.1239 56.6897 50.1696 56.5833L54.1684 47.126C54.2596 46.8979 54.3052 46.7154 54.3052 46.5786C54.3052 46.3049 54.1988 46.1072 53.9859 45.9856C53.7731 45.864 53.4766 45.7651 53.0965 45.6891C52.838 45.6435 52.6783 45.5979 52.6175 45.5523C52.5567 45.5067 52.5263 45.3774 52.5263 45.1645C52.5263 44.9783 52.5738 44.8529 52.6707 44.792C52.7715 44.7312 52.9292 44.7008 53.1421 44.7008C53.9023 44.7008 54.5048 44.7597 54.9514 44.8757C55.4019 44.9935 55.7953 45.2235 56.1298 45.5675C56.4681 45.9077 56.7836 46.4265 57.0725 47.126L60.9041 56.5833C61.1321 57.1611 61.3526 57.5944 61.5655 57.8833C61.7783 58.1722 62.0995 58.3242 62.531 58.3394H62.6678C62.8199 58.3394 62.9263 58.3679 62.9871 58.423C63.0479 58.4744 63.0859 58.6055 63.1011 58.8184C63.1011 58.9552 63.065 59.0749 62.9947 59.1757C62.9282 59.2707 62.8275 59.3201 62.6906 59.3201C61.7118 59.2745 60.8737 59.2517 60.1742 59.2517C59.262 59.2517 58.3193 59.2745 57.3462 59.3201C57.2093 59.3201 57.1048 59.2707 57.0345 59.1757C56.9679 59.0749 56.9356 58.9552 56.9356 58.8184C56.9508 58.6055 56.9889 58.4744 57.0497 58.423C57.1105 58.3679 57.2169 58.3394 57.369 58.3394C57.8859 58.3394 58.2508 58.2919 58.4637 58.195C58.6766 58.0942 58.783 57.9137 58.783 57.6552C58.783 57.4575 58.6918 57.1002 58.5093 56.5833L57.7339 54.6827H52.0929C51.7128 55.6254 51.4943 56.1765 51.4391 56.3324C51.3878 56.4844 51.3631 56.5681 51.3631 56.5833C51.1807 57.1611 51.0894 57.5336 51.0894 57.7008C51.0894 57.9593 51.2035 58.1323 51.4315 58.2178C51.6596 58.2995 52.0929 58.3394 52.7315 58.3394H52.8684C53.0204 58.3394 53.1269 58.3679 53.1877 58.423C53.2485 58.4744 53.2865 58.6055 53.3017 58.8184C53.3017 58.9552 53.2656 59.0749 53.1953 59.1757C53.1288 59.2707 53.028 59.3201 52.8912 59.3201C51.9181 59.2745 51.0856 59.2517 50.3976 59.2517C49.9111 59.2517 49.1736 59.2745 48.1853 59.3201ZM52.5263 53.702H57.3234L55.0122 47.833H54.9438L52.5263 53.702Z" fill="#FFC72C"/>
<path d="M64.1461 59.3201C64.0245 59.3201 63.9257 59.2707 63.8496 59.1757C63.7736 59.0749 63.7356 58.9552 63.7356 58.8184C63.7508 58.6055 63.7907 58.4744 63.8572 58.423C63.9276 58.3679 64.0397 58.3394 64.1917 58.3394C64.511 58.3394 64.7543 58.3147 64.9216 58.2634C65.0888 58.2083 65.2504 58.0866 65.4081 57.8985C65.5697 57.7065 65.7749 57.3967 66.0239 56.971L71.1327 47.4909C71.4254 46.8979 71.5736 46.4798 71.5736 46.2365C71.5736 46.0236 71.4767 45.8925 71.2847 45.8412C71.0909 45.786 70.745 45.7575 70.2432 45.7575H67.7572C67.2403 45.7727 66.845 45.8621 66.5713 46.0236C66.2976 46.1814 66.0733 46.4265 65.9023 46.761C65.735 47.0955 65.5374 47.6429 65.3093 48.4031C65.2637 48.54 65.1724 48.6369 65.0356 48.692C64.8988 48.7434 64.7391 48.7529 64.5566 48.7224C64.4198 48.692 64.3001 48.6312 64.1993 48.54C64.1024 48.4488 64.0625 48.3347 64.0777 48.1979L64.5338 45.3242C64.5795 45.1265 64.6479 44.9973 64.7391 44.9365C64.8303 44.8719 64.9824 44.8376 65.1952 44.8376H73.0333C73.9151 44.8376 74.8502 44.8148 75.8385 44.7692C75.9754 44.7692 76.0761 44.8205 76.1426 44.9213C76.213 45.0239 76.2491 45.1417 76.2491 45.2786C76.2339 45.4914 76.1958 45.6207 76.135 45.6663C76.0742 45.7119 75.9925 45.7404 75.8918 45.7499C75.7948 45.7556 75.7245 45.7575 75.6789 45.7575C75.1771 45.7879 74.7818 45.9552 74.4929 46.2593C74.204 46.5634 73.9227 46.9739 73.6491 47.4909L68.6467 56.971C68.5099 57.2751 68.4415 57.5032 68.4415 57.6552C68.4415 58.0961 68.852 58.3242 69.673 58.3394H72.3719C72.904 58.3242 73.307 58.2387 73.5806 58.0809C73.8543 57.9194 74.0748 57.6704 74.242 57.3359C74.4093 57.0014 74.607 56.4521 74.835 55.6862C74.911 55.4125 75.1619 55.3061 75.5877 55.3669C75.7245 55.3973 75.8404 55.4581 75.9374 55.5494C76.0381 55.6406 76.0818 55.7546 76.0666 55.8915L75.6105 58.7728C75.5649 58.9704 75.4964 59.0997 75.4052 59.1605C75.314 59.2213 75.1619 59.2517 74.9491 59.2517H66.8906C66.0486 59.2517 65.1344 59.2745 64.1461 59.3201Z" fill="#008C15"/>
<path d="M77.278 59.3201C77.1411 59.3201 77.0404 59.2707 76.9739 59.1757C76.9035 59.0749 76.8674 58.9552 76.8674 58.8184C76.8826 58.5903 76.9283 58.4535 77.0043 58.4078C77.0803 58.3622 77.1715 58.3394 77.278 58.3394C77.3844 58.3394 77.4528 58.3394 77.4832 58.3394C77.9394 58.3394 78.2739 58.2235 78.4867 57.9897C78.6996 57.7521 78.8687 57.4861 78.9961 57.1915C79.1272 56.8931 79.2166 56.6897 79.2622 56.5833L83.261 47.126C83.3522 46.8979 83.3978 46.7154 83.3978 46.5786C83.3978 46.3049 83.2914 46.1072 83.0785 45.9856C82.8657 45.864 82.5692 45.7651 82.1891 45.6891C81.9306 45.6435 81.7709 45.5979 81.7101 45.5523C81.6493 45.5067 81.6189 45.3774 81.6189 45.1645C81.6189 44.9783 81.6664 44.8529 81.7633 44.792C81.8641 44.7312 82.0218 44.7008 82.2347 44.7008C82.9949 44.7008 83.5974 44.7597 84.044 44.8757C84.4945 44.9935 84.8879 45.2235 85.2224 45.5675C85.5607 45.9077 85.8762 46.4265 86.1651 47.126L89.9967 56.5833C90.2248 57.1611 90.4452 57.5944 90.6581 57.8833C90.871 58.1722 91.1922 58.3242 91.6236 58.3394H91.7604C91.9125 58.3394 92.0189 58.3679 92.0797 58.423C92.1405 58.4744 92.1786 58.6055 92.1938 58.8184C92.1938 58.9552 92.1577 59.0749 92.0873 59.1757C92.0208 59.2707 91.9201 59.3201 91.7832 59.3201C90.8044 59.2745 89.9663 59.2517 89.2669 59.2517C88.3546 59.2517 87.4119 59.2745 86.4388 59.3201C86.3019 59.3201 86.1974 59.2707 86.1271 59.1757C86.0606 59.0749 86.0283 58.9552 86.0283 58.8184C86.0435 58.6055 86.0815 58.4744 86.1423 58.423C86.2031 58.3679 86.3095 58.3394 86.4616 58.3394C86.9786 58.3394 87.3435 58.2919 87.5563 58.195C87.7692 58.0942 87.8756 57.9137 87.8756 57.6552C87.8756 57.4575 87.7844 57.1002 87.6019 56.5833L86.8265 54.6827H81.1856C80.8054 55.6254 80.5869 56.1765 80.5318 56.3324C80.4804 56.4844 80.4557 56.5681 80.4557 56.5833C80.2733 57.1611 80.1821 57.5336 80.1821 57.7008C80.1821 57.9593 80.2961 58.1323 80.5242 58.2178C80.7522 58.2995 81.1856 58.3394 81.8242 58.3394H81.961C82.1131 58.3394 82.2195 58.3679 82.2803 58.423C82.3411 58.4744 82.3791 58.6055 82.3943 58.8184C82.3943 58.9552 82.3582 59.0749 82.2879 59.1757C82.2214 59.2707 82.1207 59.3201 81.9838 59.3201C81.0107 59.2745 80.1783 59.2517 79.4902 59.2517C79.0037 59.2517 78.2663 59.2745 77.278 59.3201ZM81.6189 53.702H86.416L84.1049 47.833H84.0364L81.6189 53.702Z" fill="#008C15"/>
<path d="M18.1081 59.7078C16.8157 59.7078 15.6316 59.3999 14.5578 58.7879C13.4878 58.1702 12.6363 57.2903 12.0034 56.1499C11.3686 55.0058 11.0531 53.6715 11.0531 52.1511C11.0531 50.6116 11.3572 49.2546 11.9654 48.0838C12.5774 46.9131 13.4479 46.0046 14.573 45.3546C15.6982 44.7065 17.0153 44.3815 18.5262 44.3815C19.8338 44.3815 20.997 44.6457 22.0157 45.1721C23.0344 45.7005 23.5438 46.5101 23.5438 47.6049C23.559 48.2891 23.3537 48.8726 22.928 49.3534C22.5023 49.8305 21.9321 50.068 21.2175 50.068C20.9438 50.068 20.71 50.0205 20.5181 49.9236C20.3299 49.8229 20.1912 49.7031 20.0999 49.5663C20.0087 49.4294 19.9707 49.323 19.9859 49.247C19.9859 49.2166 20.0923 49.1329 20.3052 48.9961C20.5181 48.8593 20.7081 48.6692 20.8754 48.4259C21.0426 48.1826 21.1262 47.8862 21.1262 47.5364C21.1262 46.8522 20.8925 46.3106 20.4268 45.9095C19.965 45.5047 19.3207 45.3014 18.4958 45.3014C17.5683 45.3014 16.7416 45.5655 16.0175 46.092C15.2971 46.6147 14.7346 47.3825 14.3297 48.3955C13.9287 49.4047 13.7292 50.6116 13.7292 52.0142C13.7292 53.2306 13.9439 54.3386 14.3754 55.3365C14.8106 56.3362 15.4245 57.1287 16.2151 57.716C17.0058 58.2995 17.9123 58.5903 18.9368 58.5903C19.7578 58.5903 20.4591 58.4211 21.0426 58.0809C21.6299 57.7369 22.1602 57.1838 22.6315 56.4236C22.7075 56.2829 22.814 56.2107 22.9508 56.2107C23.0724 56.2107 23.2093 56.2563 23.3613 56.3476C23.6046 56.5205 23.7262 56.6897 23.7262 56.8569C23.7262 56.9482 23.6958 57.0242 23.635 57.085C23.0572 57.8148 22.5118 58.3679 22.0005 58.7423C21.4931 59.1129 20.9438 59.3657 20.3508 59.5025C19.7578 59.6394 19.009 59.7078 18.1081 59.7078Z" fill="#FB4141"/>
<path d="M24.6644 59.3201C24.5276 59.3201 24.4268 59.2707 24.3603 59.1757C24.29 59.0749 24.2539 58.9552 24.2539 58.8184C24.2691 58.5903 24.3147 58.4535 24.3907 58.4078C24.4667 58.3622 24.558 58.3394 24.6644 58.3394C24.7708 58.3394 24.8393 58.3394 24.8697 58.3394C25.3258 58.3394 25.6603 58.2235 25.8732 57.9897C26.086 57.7521 26.2552 57.4861 26.3825 57.1915C26.5137 56.8931 26.603 56.6897 26.6486 56.5833L30.6475 47.126C30.7387 46.8979 30.7843 46.7154 30.7843 46.5786C30.7843 46.3049 30.6779 46.1072 30.465 45.9856C30.2521 45.864 29.9556 45.7651 29.5755 45.6891C29.317 45.6435 29.1574 45.5979 29.0966 45.5523C29.0358 45.5067 29.0053 45.3774 29.0053 45.1645C29.0053 44.9783 29.0529 44.8529 29.1498 44.792C29.2505 44.7312 29.4083 44.7008 29.6211 44.7008C30.3814 44.7008 30.9839 44.7597 31.4305 44.8757C31.8809 44.9935 32.2744 45.2235 32.6089 45.5675C32.9472 45.9077 33.2627 46.4265 33.5515 47.126L37.3831 56.5833C37.6112 57.1611 37.8317 57.5944 38.0445 57.8833C38.2574 58.1722 38.5786 58.3242 39.01 58.3394H39.1469C39.2989 58.3394 39.4054 58.3679 39.4662 58.423C39.527 58.4744 39.565 58.6055 39.5802 58.8184C39.5802 58.9552 39.5441 59.0749 39.4738 59.1757C39.4073 59.2707 39.3065 59.3201 39.1697 59.3201C38.1909 59.2745 37.3527 59.2517 36.6533 59.2517C35.741 59.2517 34.7983 59.2745 33.8252 59.3201C33.6884 59.3201 33.5839 59.2707 33.5135 59.1757C33.447 59.0749 33.4147 58.9552 33.4147 58.8184C33.4299 58.6055 33.4679 58.4744 33.5287 58.423C33.5896 58.3679 33.696 58.3394 33.848 58.3394C34.365 58.3394 34.7299 58.2919 34.9428 58.195C35.1556 58.0942 35.2621 57.9137 35.2621 57.6552C35.2621 57.4575 35.1708 57.1002 34.9884 56.5833L34.213 54.6827H28.572C28.1919 55.6254 27.9733 56.1765 27.9182 56.3324C27.8669 56.4844 27.8422 56.5681 27.8422 56.5833C27.6597 57.1611 27.5685 57.5336 27.5685 57.7008C27.5685 57.9593 27.6825 58.1323 27.9106 58.2178C28.1387 58.2995 28.572 58.3394 29.2106 58.3394H29.3474C29.4995 58.3394 29.6059 58.3679 29.6667 58.423C29.7276 58.4744 29.7656 58.6055 29.7808 58.8184C29.7808 58.9552 29.7447 59.0749 29.6743 59.1757C29.6078 59.2707 29.5071 59.3201 29.3703 59.3201C28.3972 59.2745 27.5647 59.2517 26.8767 59.2517C26.3901 59.2517 25.6527 59.2745 24.6644 59.3201ZM29.0053 53.702H33.8024L31.4913 47.833H31.4229L29.0053 53.702Z" fill="#FB4141"/>
<path d="M42.9544 59.4797C42.4982 58.2329 41.776 56.2468 40.7877 53.5195C39.7994 50.794 39.0734 48.8212 38.6134 47.6049C38.3549 46.9511 38.1041 46.4949 37.8608 46.2364C37.6175 45.978 37.2602 45.8031 36.7889 45.7119C36.728 45.6967 36.6368 45.6796 36.5152 45.6587C36.3935 45.634 36.3118 45.5883 36.2719 45.5218C36.2358 45.4515 36.2187 45.3394 36.2187 45.1873C36.2187 45.0011 36.2662 44.8756 36.3631 44.8148C36.4639 44.754 36.6216 44.7236 36.8345 44.7236C37.9748 44.7236 38.8415 44.9022 39.4345 45.2557C40.0313 45.6054 40.5064 46.2288 40.8561 47.1259L44.1631 56.0283H44.2316L47.3865 46.875C47.4778 46.6166 47.5234 46.4189 47.5234 46.2821C47.5234 46.0692 47.4341 45.9304 47.2573 45.8639C47.0843 45.7936 46.7936 45.7575 46.383 45.7575H46.2462C46.0941 45.7575 45.9877 45.7328 45.9269 45.6815C45.8661 45.6264 45.8281 45.4914 45.8129 45.2785C45.8129 45.1417 45.8452 45.0239 45.9117 44.9212C45.982 44.8205 46.0789 44.7692 46.2006 44.7692C47.1889 44.8148 48.0175 44.8376 48.6865 44.8376C48.9754 44.8376 49.5323 44.8224 50.3591 44.792L50.838 44.7692C50.9748 44.7692 51.0756 44.8205 51.1421 44.9212C51.2124 45.0239 51.2485 45.1417 51.2485 45.2785C51.2333 45.4914 51.1953 45.6264 51.1345 45.6815C51.0737 45.7328 50.9672 45.7575 50.8152 45.7575C50.1557 45.7575 49.6539 45.8639 49.3099 46.0768C48.9697 46.2897 48.6789 46.7002 48.4357 47.3084C47.9795 48.5552 47.244 50.5774 46.231 53.375C45.2218 56.1689 44.4862 58.2025 44.0263 59.4797H42.9544Z" fill="#FFC72C"/>
</svg>
