<svg width="46" height="46" viewBox="0 0 46 46" fill="none" xmlns="http://www.w3.org/2000/svg">
<path d="M27.3923 11.2534H18.3923C16.4032 11.2534 14.4956 12.0436 13.089 13.4501C11.6825 14.8566 10.8923 16.7643 10.8923 18.7534L10.8923 27.7534C10.8923 29.7425 11.6825 31.6502 13.089 33.0567C14.4956 34.4632 16.4032 35.2534 18.3923 35.2534H27.3923C29.3815 35.2534 31.2891 34.4632 32.6956 33.0567C34.1022 31.6502 34.8923 29.7425 34.8923 27.7534V18.7534C34.8923 16.7643 34.1022 14.8566 32.6956 13.4501C31.2891 12.0436 29.3815 11.2534 27.3923 11.2534ZM32.6423 27.7534C32.6423 30.6484 30.2873 33.0034 27.3923 33.0034H18.3923C15.4973 33.0034 13.1423 30.6484 13.1423 27.7534V18.7534C13.1423 15.8584 15.4973 13.5034 18.3923 13.5034H27.3923C30.2873 13.5034 32.6423 15.8584 32.6423 18.7534V27.7534Z" fill="black"/>
<path d="M22.8845 17.2534C21.2932 17.2534 19.7671 17.8856 18.6419 19.0108C17.5167 20.136 16.8845 21.6621 16.8845 23.2534C16.8845 24.8447 17.5167 26.3708 18.6419 27.4961C19.7671 28.6213 21.2932 29.2534 22.8845 29.2534C24.4758 29.2534 26.0019 28.6213 27.1272 27.4961C28.2524 26.3708 28.8845 24.8447 28.8845 23.2534C28.8845 21.6621 28.2524 20.136 27.1272 19.0108C26.0019 17.8856 24.4758 17.2534 22.8845 17.2534ZM22.8845 27.0034C21.8903 27.0022 20.9372 26.6068 20.2342 25.9038C19.5312 25.2008 19.1357 24.2476 19.1345 23.2534C19.1345 21.1849 20.8175 19.5034 22.8845 19.5034C24.9515 19.5034 26.6345 21.1849 26.6345 23.2534C26.6345 25.3204 24.9515 27.0034 22.8845 27.0034Z" fill="black"/>
<path d="M29.3442 17.6024C29.7857 17.6024 30.1437 17.2445 30.1437 16.8029C30.1437 16.3614 29.7857 16.0034 29.3442 16.0034C28.9026 16.0034 28.5447 16.3614 28.5447 16.8029C28.5447 17.2445 28.9026 17.6024 29.3442 17.6024Z" fill="black"/>
<path d="M44.8884 23.2554C44.8884 35.4056 35.0387 45.2554 22.8884 45.2554C10.7382 45.2554 0.888428 35.4056 0.888428 23.2554C0.888428 11.1051 10.7382 1.25537 22.8884 1.25537C35.0387 1.25537 44.8884 11.1051 44.8884 23.2554Z" stroke="black"/>
</svg>
