<svg width="24" height="19" viewBox="0 0 24 19" fill="none" xmlns="http://www.w3.org/2000/svg">
<path d="M21.3103 0.799023L11.8073 0.822168L2.30422 0.775879H2.29959C1.02202 0.775879 0.00830078 1.97476 0.00830078 3.47451V16.0372C0.00830078 17.537 1.02202 18.7359 2.29959 18.7359H21.3242C22.6018 18.7359 23.6155 17.537 23.6155 16.0372V3.47451C23.6155 1.97476 22.6111 0.799023 21.3103 0.799023ZM20.5651 2.65057L12.0758 10.4132L12.0434 10.441L12.0156 10.4734C11.9137 10.5844 11.7934 10.5983 11.7286 10.5983C11.6638 10.5983 11.5434 10.5798 11.4462 10.4641L11.4185 10.4317L3.30405 2.61354L11.8073 2.66908L20.5651 2.65057ZM21.3242 16.8843H2.29959C2.13758 16.8843 1.85985 16.5788 1.85985 16.0372V3.77075L10.0807 11.7139C10.4973 12.1768 11.0852 12.4452 11.7101 12.4545H11.7378C12.3535 12.4545 12.9275 12.1999 13.3487 11.7555L21.7732 4.04386V16.0372C21.764 16.5788 21.4862 16.8843 21.3242 16.8843Z" fill="black"/>
</svg>
