<svg width="46" height="46" viewBox="0 0 46 46" fill="none" xmlns="http://www.w3.org/2000/svg">
<path d="M44.8884 23.2554C44.8884 35.4056 35.0387 45.2554 22.8884 45.2554C10.7382 45.2554 0.888428 35.4056 0.888428 23.2554C0.888428 11.1051 10.7382 1.25537 22.8884 1.25537C35.0387 1.25537 44.8884 11.1051 44.8884 23.2554Z" stroke="black"/>
<path d="M32.8884 32.8129V25.4179C32.8884 21.4554 30.7734 19.6116 27.9534 19.6116C25.6778 19.6116 24.6578 20.8635 24.0897 21.7423V19.9148H19.8022C19.8591 21.1254 19.8022 32.8129 19.8022 32.8129H24.0897V25.6098C24.0897 25.2254 24.1172 24.8398 24.2309 24.5648C24.5403 23.7941 25.2459 22.9966 26.4297 22.9966C27.9816 22.9966 28.6016 24.1791 28.6016 25.9129V32.8135L32.8884 32.8129ZM15.2853 18.1541C16.7797 18.1541 17.7116 17.1629 17.7116 15.9248C17.6841 14.6598 16.7803 13.6973 15.3141 13.6973C13.8478 13.6973 12.8884 14.6591 12.8884 15.9248C12.8884 17.1629 13.8191 18.1541 15.2584 18.1541H15.2853ZM17.4291 32.8129V19.9148H13.1422V32.8129H17.4291Z" fill="black"/>
</svg>
