<svg width="46" height="46" viewBox="0 0 46 46" fill="none" xmlns="http://www.w3.org/2000/svg">
<path d="M44.8884 23.2554C44.8884 35.4056 35.0387 45.2554 22.8884 45.2554C10.7382 45.2554 0.888428 35.4056 0.888428 23.2554C0.888428 11.1051 10.7382 1.25537 22.8884 1.25537C35.0387 1.25537 44.8884 11.1051 44.8884 23.2554Z" stroke="black"/>
<path d="M26.7249 15.2404H28.8962V11.4244C27.8449 11.3108 26.7886 11.2547 25.7317 11.2564C22.5902 11.2564 20.442 13.2484 20.442 16.8964V20.0404H16.8962V24.3124H20.442V35.2564H24.6922V24.3124H28.2264L28.7576 20.0404H24.6922V17.3164C24.6922 16.0564 25.0156 15.2404 26.7249 15.2404Z" fill="black"/>
</svg>
