<svg width="19" height="19" viewBox="0 0 19 19" fill="none" xmlns="http://www.w3.org/2000/svg">
<path d="M16.4874 13.0239L13.9474 12.7339C13.6487 12.6988 13.346 12.7319 13.0619 12.8306C12.7779 12.9294 12.5199 13.0912 12.3074 13.3039L10.4674 15.1439C7.62855 13.7001 5.32115 11.3927 3.87736 8.55393L5.72737 6.70393C6.15736 6.27393 6.36736 5.67393 6.29736 5.06393L6.00736 2.54393C5.95067 2.0561 5.71656 1.60616 5.3496 1.27977C4.98264 0.953386 4.50847 0.773344 4.01737 0.773927H2.28737C1.15737 0.773927 0.217365 1.71393 0.287365 2.84393C0.817365 11.3839 7.64737 18.2039 16.1774 18.7339C17.3074 18.8039 18.2474 17.8639 18.2474 16.7339V15.0039C18.2574 13.9939 17.4974 13.1439 16.4874 13.0239Z" fill="black"/>
</svg>
