<svg width="46" height="46" viewBox="0 0 46 46" fill="none" xmlns="http://www.w3.org/2000/svg">
<path d="M44.8884 23.2554C44.8884 35.4056 35.0387 45.2554 22.8884 45.2554C10.7382 45.2554 0.888428 35.4056 0.888428 23.2554C0.888428 11.1051 10.7382 1.25537 22.8884 1.25537C35.0387 1.25537 44.8884 11.1051 44.8884 23.2554Z" stroke="black"/>
<path d="M34.0295 16.2349L34.0294 16.235L34.034 16.2428C34.6983 17.376 35.0781 19.4234 35.0781 23.2521V23.2652C35.0781 27.0772 34.698 29.1392 34.0365 30.2582L34.0364 30.2582L34.0311 30.2676C33.7106 30.8378 33.4076 31.1229 33.0483 31.2948C32.6648 31.4783 32.1656 31.5594 31.3856 31.6123C29.8308 31.7013 25.905 31.7554 22.4904 31.7554C19.069 31.7554 15.1416 31.7013 13.589 31.6107C12.8107 31.5578 12.3121 31.4767 11.9279 31.2931C11.5676 31.1209 11.2628 30.8351 10.9389 30.2643L10.939 30.2642L10.9355 30.2583C10.2793 29.1382 9.89624 27.0744 9.89624 23.2636V23.2505C9.89624 19.4246 10.2789 17.3752 10.9366 16.2407L10.9366 16.2407L10.9391 16.2364C11.2631 15.6646 11.568 15.3788 11.9275 15.2082C12.3108 15.0263 12.8094 14.9482 13.5878 14.9035L13.5878 14.9035L13.5925 14.9032C15.1385 14.7998 19.0643 14.7554 22.4904 14.7554C25.9102 14.7554 29.834 14.7998 31.3813 14.9048L31.3813 14.9048L31.387 14.9051C32.167 14.949 32.6656 15.0272 33.0477 15.2089C33.4058 15.3791 33.7086 15.6642 34.0295 16.2349Z" stroke="black"/>
<path fill-rule="evenodd" clip-rule="evenodd" d="M19.2244 28.1634V18.3452L27.4062 23.2543L19.2244 28.1634Z" fill="black"/>
</svg>
